<svg xmlns="http://www.w3.org/2000/svg" width="30" height="30" viewBox="0 0 340 200" xml:space="preserve"><path fill="none" d="M338.031 101.991c0 50.178-74.963 90.863-167.431 90.863-92.471 0-167.434-40.686-167.434-90.863 0-50.184 74.963-90.869 167.434-90.869 92.468 0 167.431 40.686 167.431 90.869z"/><ellipse fill="none" cx="171.299" cy="101.993" rx="161.066" ry="84.674"/><path fill="#FFF" stroke="#FFF" stroke-miterlimit="10" d="m171.299 34.906-10.082.802s-4.292-9.333-5-10.333-1.458-2.625-2-.375-2.292 26.063-2.292 26.063-.75 8.687-5.375 14.937-8.438 8.75-10.688 9.25-15.813 2.375-26.438-5.313-8.438-16.375-7.813-20.5 7.375-14.75 13.063-19.563c0 0-30.313 7.625-44.5 14.813s-25.75 13.063-38.313 26S17.425 98.313 18.175 104s1.813 13.813 9.938 24.688 25 23.125 25 23.125S89.488 170.75 93.8 169.188c0 0-12.813-12.625-16.563-23.313s-2.5-21.75 5-25.813 23.188.625 31.25 7.063 11.625 9.25 11.625 9.25 6.375-8.063 7.313-8.688 5.688-4.438 10.438-.625 9.313 8.625 14.25 17.125 14.186 25.875 14.186 25.875V34.906z"/><path fill="#FFF" stroke="#FFF" stroke-miterlimit="10" d="m170.2 34.906 10.087.802s4.293-9.333 5-10.333c.709-1 1.459-2.625 2-.375.542 2.25 2.292 26.063 2.292 26.063s.75 8.688 5.375 14.938 8.438 8.75 10.688 9.25 15.813 2.375 26.438-5.313 8.438-16.375 7.813-20.5-7.375-14.75-13.063-19.563c0 0 30.313 7.625 44.5 14.813s25.75 13.063 38.313 26S324.079 98.313 323.329 104s-1.813 13.813-9.938 24.688-25 23.125-25 23.125-36.375 18.938-40.688 17.375c0 0 12.813-12.625 16.563-23.313s2.5-21.75-5-25.813-23.188.625-31.25 7.063-11.625 9.25-11.625 9.25-6.375-8.063-7.313-8.688-5.688-4.438-10.438-.625-9.313 8.625-14.25 17.125-14.19 25.876-14.19 25.876V34.906z"/></svg>